<svg width="40" height="40" fill="none" xmlns="http://www.w3.org/2000/svg"><path fill="#C1D7C6" fill-opacity=".7" d="M0 0h40v40H0z"/><g clip-path="url(#clip0_325_11834)"><path d="M19.016 20l3.914 4.078c.125.125.125.25 0 .375l-.703.727c-.125.125-.25.125-.375 0l-4.782-4.992A.253.253 0 0117 20c0-.078.023-.14.07-.188l4.782-4.992c.109-.11.234-.101.375.024l.703.703c.125.125.125.25 0 .375L19.016 20z" fill="#121212"/></g><defs><clipPath id="clip0_325_11834"><path fill="#fff" transform="matrix(1 0 0 -1 17 26)" d="M0 0h6v12H0z"/></clipPath></defs></svg>