<svg width="20" height="25" fill="none" xmlns="http://www.w3.org/2000/svg"><path d="M14.444 6.706l-.15-2.025C14.125 2.45 12.25.687 10 .687c-2.25 0-4.144 1.763-4.294 3.994l-.15 2.025H3.4c-.881 0-1.613.694-1.688 1.575L.7 22.512c-.038.47.131.938.45 1.276a1.72 1.72 0 001.237.543h15.244a1.65 1.65 0 001.238-.543 1.68 1.68 0 00.45-1.276l-1.013-14.1a1.822 1.822 0 00-1.819-1.687h-2.043v-.019zM6.83 4.756A3.175 3.175 0 0110 1.812a3.175 3.175 0 013.169 2.944l.131 1.95H6.681l.15-1.95zm10.35 3.732l1.013 14.1c.018.15-.038.3-.15.43a.602.602 0 01-.413.188H2.387a.53.53 0 01-.412-.187c-.113-.131-.169-.263-.15-.431L2.837 8.355A.557.557 0 013.4 7.83h2.081l-.112 1.5a.554.554 0 00.525.6h.037c.3 0 .544-.225.563-.525l.112-1.575h6.788l.112 1.575a.554.554 0 00.6.525.554.554 0 00.525-.6l-.112-1.5h1.969a.71.71 0 01.693.657z" fill="#2B2A29"/></svg>