<svg width="95" height="40" fill="none" xmlns="http://www.w3.org/2000/svg"><g clip-path="url(#clip0_2002_874)"><path d="M72.778 13.767c.165.228.33.466.485.704 0 .01-.055.074-.082.101-.183-.183-.348-.366-.522-.53-.22-.211-.64-.22-.879-.02-.165.138-.32.285-.485.422-.11.082-.229.183-.357.201-.165.019-.467-.018-.476-.073-.027-.21 0-.44.073-.64.019-.065.248-.046.385-.074.146-.027.403-.037.42-.11.047-.146-.036-.338-.063-.521.366-.174.787-.348 1.18-.577.12-.064.156-.266.266-.458.028.147.055.247.092.412.192-.009.439 0 .677-.036.384-.055.503-.44.311-.76-.082-.128 0-.357.019-.586-.174.082-.367.183-.412.458a2.036 2.036 0 01-.092.393c-.046.1-.128.183-.192.275a7.808 7.808 0 01-.247-.284c-.019-.027-.028-.064-.046-.128-.11.01-.21.027-.311.037-.128-.211-.092-.34.11-.476.247-.174.439-.421.677-.614.128-.1.32-.238.458-.201.393.082.778.238 1.171.366l-.036.156c-.147-.019-.284-.037-.495-.055.12.137.202.238.312.357-.129.11-.266.22-.412.348.54.21 1.4-.284 1.546-.888.11.018.23.027.312.036-.074-.201-.156-.402-.247-.64 2.746.778 4.713 4.53 4.256 7.99-.092-.393-.183-.76-.284-1.19-.494.449-.586 1.053-.787 1.602h-.1c-.037-.348-.129-.704-.092-1.043.046-.458-.247-.732-.531-.906-.504-.293-1.08-.467-1.73-.733.174.266.32.495.476.742.128-.046.247-.083.357-.12.43.413.384.733-.138 1.008-.247.128-.494.247-.74.366-.367.183-.45.119-.596-.256-.21-.54-.476-1.053-.723-1.575-.028-.064-.119-.1-.22-.119.266.796.367 1.648 1.016 2.243.147.128.421.11.714.183-.146.21-.265.43-.44.613-.155.165-.356.284-.54.412-.393.275-.64.613-.621 1.126.018.393-.184.686-.531.897a.984.984 0 00-.348.44c-.174.448-.934.979-1.4.951-.202-.009-.321-.073-.349-.302-.036-.256-.128-.512-.2-.76-.12-.375-.193-.714-.047-1.126.092-.256-.064-.64-.201-.924-.1-.21-.192-.357-.073-.586.11-.22.036-.357-.23-.384-.09-.01-.173-.092-.264-.11a3.257 3.257 0 00-.586-.092c-.147-.009-.293.019-.43.037-.715.119-.907-.513-1.255-.897-.091-.1-.064-.311-.073-.467a5.718 5.718 0 010-.686c0-.11.037-.238.1-.312.211-.228.45-.43.66-.659.183-.201.32-.448.513-.64.091-.092.256-.11.402-.156.083-.027.174-.027.257-.037l1.281-.137c.01.476.476.943.888.952h.073c.366-.375.723-.064 1.08 0 .073.018.147.028.22.037.567.046.686-.101.576-.705-.118 0-.247-.01-.356.01-.284.054-.458-.056-.55-.321-.082-.22-.192-.403-.485-.202.055.074.1.156.165.238-.201.23-.293.092-.384-.11-.129-.256-.257-.512-.421-.74-.074-.102-.23-.147-.348-.22-.019.027-.037.063-.064.09l-.037-.017z" fill="#86B049"/><path d="M69.565 3.908c.531 1.355.531 2.728.128 4.174 2.142-.54 4.147-.22 6.097.632-.705-.092-1.401-.21-2.106-.275-3.414-.293-6.132.934-7.908 3.881-1.703 2.829-1.712 5.776-.046 8.65 1.803 3.103 5.675 4.696 9.4 3.662.074-.019 2.252-1.062 2.344-1.026a202.29 202.29 0 01-2.453 1.19c-3.177 1.318-6.984.55-9.41-1.894-3.304-3.341-3.497-8.458-.43-12.028a8.666 8.666 0 013.386-2.416c.266-.11.394-.275.467-.531.376-1.227.55-2.48.522-3.762v-.257h.01z" fill="#476930"/><path d="M70.984 7.542c.156-.604.604-.97 1.144-1.235 1.373-.678 2.7-.531 3.991.265.485.293.98.568 1.492.806.75.338 1.529.402 2.307.036a.494.494 0 01.31-.018c-.759 1.226-1.83 2.087-3.157 2.627-1.245.513-3.515.073-4.696-.906 1.08.384 2.087.604 3.13.595 1.108 0 1.941-.55 2.765-1.254-.476-.202-.906-.339-1.3-.55-.595-.32-1.162-.695-1.748-1.043-1.126-.668-2.27-.568-3.396-.018-.311.155-.558.457-.833.695h-.009zm-2.362-.348c-.631-.256-.979-.76-1.217-1.354-.33-.833-.375-1.694.037-2.5.494-.97 1.061-1.903 1.629-2.91.732.613 1.345 1.254 1.83 2.005.486.75.715 1.556.55 2.444-.046.247-.156.485-.256.787-.055-.1-.074-.128-.074-.147.266-1.464-.448-2.526-1.41-3.478-.073-.073-.146-.137-.219-.21-.147-.147-.256-.129-.357.045-.357.595-.76 1.163-1.062 1.785-.576 1.181-.366 2.298.412 3.332.046.064.1.128.147.192l-.01.01z" fill="#476930"/><path d="M65.208 17.382c.476.238.714.696.906 1.135.183.412.449.65.833.787.614.23.705.394.577 1.044-.028.146 0 .302.01.448.008.266.164.531-.065.788-.036.045-.01.173.018.247.138.384.275.768.403 1.107-1.236-.595-3.048-4.274-2.682-5.565v.01zm5.739 4.623c-.558.073-1.025.183-1.483-.183.531-.312.962-.147 1.483.183z" fill="#86B049"/><path d="M.805 23.799V9.61h11.57v.33H3.863v6.315h5.061v.33H3.863v7.213H.805zM16.458 9.638h3.25l5.811 14.16h-3.212l-2.39-5.793h-6.141l-2.115 5.794h-.384l5.171-14.16h.01zm-2.536 8.028H19.8l-3.122-7.58-2.755 7.58zm16.394-8.028v4c.11-.613.879-4.31 4.549-4.31 3.67 0 5.126.63 5.126 3.267 0 2.636-1.721 3.167-3.881 3.313 2.69.22 5.254 1.053 5.254 3.946 0 2.892-3.854 3.945-7.259 3.945H27.26V9.639h3.057zm0 6.152h4.046c1.29-.019 2.498-.77 2.498-3.378 0-2.609-.906-2.764-2.196-2.764-3.405 0-4.266 4.33-4.348 6.132v.01zm0 .31v7.36h2.91c3.296 0 4.953-.183 4.953-3.597s-1.657-3.762-4.65-3.762h-3.213zm15.936-6.462v4.714c.476-2.645 1.446-5.016 4.805-5.016 3.36 0 5.922 1.117 5.922 4.65 0 3.534-1.638 4.083-3.79 4.614l3.708 5.18H53.41l-3.515-4.878h-3.643v4.897h-3.058V9.639h3.058zm0 8.962h3.121c2.069 0 4.476-.33 4.476-4.614 0-4.283-.128-4.576-3.341-4.33-1.336.101-2.847.953-3.423 2.948-.925 3.149-.842 5.996-.842 5.996h.009zM58.81 9.638h3.057v14.16H58.81V9.639zm35.817 10.316c0 3.112-2.133 4.165-6.7 4.165-4.568 0-6.81-1.236-6.81-4.778l3.313-.467c0 2.884.083 4.916 3.488 4.916s5.19-.65 5.19-3.232c0-2.58-2.133-2.544-5.749-3.048-4.521-.631-5.876-1.867-5.876-4.448 0-2.581 2.737-3.735 5.73-3.735 2.993 0 6.654 1.218 6.654 4.348l-3.011.384c0-2.718-.128-4.411-3.643-4.411-3.515 0-4.44.65-4.44 2.58 0 1.932 1.035 2.115 4.632 2.582 6.288.815 7.213 2.847 7.213 5.144h.009zM5.09 35.67a3.963 3.963 0 01-1.593.367c-1.392 0-2.197-.925-2.197-2.508v-3.314H.046v-.567H1.3v-1.575l.604-.137v1.712H4.97v.567H1.904v3.286c0 1.227.55 1.959 1.684 1.959 1.135 0 .943-.128 1.391-.311l.11.512v.01zm7.084-2.7H6.526c.064 1.547 1.135 2.48 2.6 2.48 1.464 0 1.83-.42 2.252-1.244H12c-.513 1.217-1.639 1.822-2.892 1.822-1.84 0-3.195-1.3-3.195-3.232 0-1.93 1.327-3.276 3.167-3.276 1.84 0 3.13 1.418 3.094 3.45zm-5.63-.567h4.998c-.146-1.346-1.08-2.307-2.462-2.307-1.382 0-2.38.97-2.535 2.307zm10.957 3.505l-1.959-2.745-1.95 2.745h-.74l2.306-3.221-2.179-3.04h.733l1.83 2.573 1.813-2.572h.741l-2.188 3.039 2.307 3.221h-.732.018zm6.417-.238c-.32.156-.952.367-1.593.367-1.391 0-2.197-.925-2.197-2.508v-3.314h-1.254v-.567h1.254v-1.575l.604-.137v1.712H23.8v.567h-3.067v3.286c0 1.227.55 1.959 1.684 1.959 1.136 0 .943-.128 1.392-.311l.11.512v.01zm2.16-8.247a.464.464 0 01-.485.476.456.456 0 01-.476-.476c0-.274.22-.466.476-.466s.485.2.485.466zm-.787 2.225h.604v6.26h-.604v-6.26zm2.517-2.508h.613v8.768h-.613V27.14zm8.384 5.83h-5.647c.064 1.547 1.135 2.48 2.6 2.48 1.464 0 1.83-.42 2.25-1.244h.623c-.512 1.217-1.638 1.822-2.892 1.822-1.84 0-3.195-1.3-3.195-3.232 0-1.93 1.328-3.276 3.167-3.276 1.84 0 3.13 1.418 3.094 3.45zm-5.63-.567h4.999c-.147-1.346-1.08-2.307-2.463-2.307-1.382 0-2.38.97-2.535 2.307zm16.779.375c0 1.877-1.217 3.259-2.957 3.259-1.739 0-2.141-.65-2.627-1.63v4.348h-.604v-9.107h.604v1.5a2.88 2.88 0 012.627-1.628c1.74 0 2.957 1.372 2.957 3.258zm-.604 0c0-1.547-.989-2.673-2.444-2.673-1.456 0-2.554 1.126-2.554 2.673 0 1.547 1.108 2.673 2.554 2.673 1.446 0 2.444-1.126 2.444-2.673zm5.556-3.222v.604a4.673 4.673 0 00-.403-.018c-1.446 0-2.38 1.062-2.38 2.728v3.038h-.604v-6.26h.604v1.556c.366-.98 1.154-1.684 2.371-1.684s.311.009.412.036zm7.258 3.222c0 1.867-1.41 3.259-3.212 3.259-1.803 0-3.213-1.392-3.213-3.259s1.446-3.258 3.213-3.258c1.766 0 3.212 1.372 3.212 3.258zm-5.803 0c0 1.547 1.154 2.673 2.6 2.673 1.446 0 2.6-1.126 2.6-2.673 0-1.547-1.163-2.673-2.6-2.673s-2.6 1.108-2.6 2.673zm13.291-5.638v8.768h-.604v-1.5c-.504.979-1.446 1.629-2.627 1.629-1.758 0-2.975-1.373-2.975-3.259s1.227-3.258 2.956-3.258c1.73 0 2.142.65 2.646 1.629v-4.01h.604zm-.604 5.638c0-1.547-1.108-2.673-2.554-2.673-1.446 0-2.444 1.126-2.444 2.673 0 1.547.998 2.673 2.444 2.673s2.554-1.117 2.554-2.673zm7.606-3.13v6.26h-.604v-1.464c-.403.934-1.162 1.593-2.38 1.593-1.217 0-2.215-.88-2.215-2.399v-3.981h.604v3.908c0 1.263.641 1.904 1.74 1.904 1.098 0 2.251-1.07 2.251-2.645v-3.167h.604v-.01zm1.529 3.13c0-1.876 1.41-3.258 3.222-3.258s2.608.85 2.993 2.206h-.64c-.33-.98-1.246-1.639-2.353-1.639-1.108 0-2.618 1.135-2.618 2.682s1.135 2.682 2.609 2.682c1.473 0 2.04-.668 2.37-1.639h.641c-.384 1.355-1.593 2.206-3.002 2.206-1.41 0-3.213-1.373-3.213-3.258l-.01.018zm12.1 2.892c-.32.156-.951.367-1.592.367-1.392 0-2.197-.925-2.197-2.508v-3.314h-1.254v-.567h1.254v-1.575l.604-.137v1.712h3.067v.567h-3.067v3.286c0 1.227.55 1.959 1.684 1.959 1.135 0 .943-.128 1.392-.311l.11.512v.01zm.824-1.72h.614c.283 1.061 1.107 1.5 2.352 1.5 1.245 0 1.886-.411 1.886-1.217 0-.805-.76-.887-2.05-1.217-1.795-.458-2.472-.75-2.472-1.684 0-.934 1.043-1.813 2.425-1.813 1.383 0 2.335.623 2.61 1.73h-.614c-.284-.787-1.035-1.153-1.977-1.153-.943 0-1.83.458-1.83 1.181 0 .723.594.796 2.059 1.172 1.592.412 2.47.65 2.47 1.73s-1.152 1.84-2.489 1.84c-1.336 0-2.718-.751-2.984-2.088v.019z" fill="#0F0F0F"/></g><defs><clipPath id="clip0_2002_874"><path fill="#fff" d="M0 0h94.645v40H0z"/></clipPath></defs></svg>