<svg width="13" height="16" viewBox="0 0 13 16" fill="none" xmlns="http://www.w3.org/2000/svg">
<path d="M6.49997 0C3.17197 0 0.4646 2.70737 0.4646 6.03495C0.4646 10.8261 5.85239 15.6392 6.08186 15.8421C6.19966 15.9457 6.35177 16.0018 6.50864 15.9996C6.6655 15.9973 6.81593 15.9369 6.93071 15.8299C7.15934 15.616 12.5353 10.5381 12.5353 6.03537C12.5353 2.70779 9.82713 0 6.49997 0ZM6.49997 8.91284C5.74545 8.89993 5.0262 8.59114 4.49718 8.05299C3.96816 7.51484 3.67172 6.79042 3.67172 6.03579C3.67172 5.28116 3.96816 4.55673 4.49718 4.01859C5.0262 3.48044 5.74545 3.17165 6.49997 3.15874C7.26301 3.15874 7.9948 3.46185 8.53435 4.00141C9.0739 4.54096 9.37702 5.27275 9.37702 6.03579C9.37702 6.79883 9.0739 7.53062 8.53435 8.07017C7.9948 8.60972 7.26301 8.91284 6.49997 8.91284Z" fill="#93AF99"/>
</svg>
