<svg width="30" height="30" fill="none" xmlns="http://www.w3.org/2000/svg"><rect x=".5" y=".5" width="29" height="29" rx="14.5" fill="#FCFCFC"/><rect x=".5" y=".5" width="29" height="29" rx="14.5" stroke="#121212"/><path d="M15.196 14.67a4.195 4.195 0 003.065-1.27 4.195 4.195 0 001.27-3.065c0-1.19-.427-2.222-1.27-3.065A4.196 4.196 0 0015.196 6a4.195 4.195 0 00-3.066 1.27 4.195 4.195 0 00-1.27 3.065 4.2 4.2 0 001.27 3.066 4.197 4.197 0 003.066 1.27zm-2.32-6.654c.647-.647 1.406-.961 2.32-.961.914 0 1.672.314 2.32.96.646.648.96 1.406.96 2.32 0 .914-.314 1.673-.96 2.32-.648.647-1.406.96-2.32.96a3.137 3.137 0 01-2.32-.96c-.646-.647-.961-1.406-.961-2.32 0-.914.315-1.672.961-2.32zm9.906 11.825c-.025-.35-.074-.733-.146-1.137a8.952 8.952 0 00-.28-1.144 5.645 5.645 0 00-.47-1.066 4.02 4.02 0 00-.709-.924 3.126 3.126 0 00-1.018-.64 3.52 3.52 0 00-1.3-.235c-.184 0-.362.075-.705.299-.244.159-.488.316-.734.473a4.24 4.24 0 01-.95.418 3.774 3.774 0 01-1.161.188 3.76 3.76 0 01-1.162-.188 4.195 4.195 0 01-.949-.418 95.55 95.55 0 01-.735-.474c-.343-.223-.52-.298-.704-.298-.468 0-.905.079-1.3.235a3.123 3.123 0 00-1.018.64 4.023 4.023 0 00-.709.924 5.66 5.66 0 00-.47 1.066 8.977 8.977 0 00-.28 1.144c-.072.403-.121.786-.146 1.137a15.4 15.4 0 00-.035 1.063c0 .94.298 1.7.887 2.262.582.553 1.352.834 2.288.834h8.667c.936 0 1.705-.28 2.287-.834.59-.56.888-1.322.888-2.262 0-.362-.012-.72-.036-1.063zm-1.58 2.56c-.384.366-.894.544-1.56.544h-8.666c-.666 0-1.176-.178-1.56-.543-.377-.36-.56-.85-.56-1.498 0-.337.01-.67.033-.99a9.377 9.377 0 01.378-2.032 4.61 4.61 0 01.382-.867 2.98 2.98 0 01.521-.683 2.06 2.06 0 01.678-.421c.248-.098.527-.152.83-.16.037.02.103.057.21.126.216.142.466.303.743.48a5.24 5.24 0 001.192.532c.49.158.99.239 1.486.239s.996-.08 1.486-.239c.48-.155.88-.334 1.193-.533.282-.18.526-.337.742-.479.107-.07.173-.107.21-.126.303.008.582.062.83.16.269.106.497.248.678.421.193.185.368.415.52.683.16.28.29.572.384.867.098.307.18.647.246 1.008.065.367.11.712.131 1.025.023.318.034.651.034.99 0 .648-.183 1.138-.56 1.496z" fill="#2B2A29"/></svg>