<svg width="95" height="40" viewBox="0 0 95 40" fill="none" xmlns="http://www.w3.org/2000/svg">
<g clip-path="url(#clip0_2002_874)">
<path d="M72.778 13.7666C72.9428 13.9954 73.1075 14.2334 73.2631 14.4714C73.2631 14.4806 73.2082 14.5446 73.1807 14.5721C72.9977 14.389 72.8329 14.206 72.659 14.0412C72.4393 13.8307 72.0183 13.8215 71.7803 14.0229C71.6155 14.1602 71.4599 14.3067 71.2952 14.444C71.1853 14.5263 71.0663 14.627 70.9382 14.6453C70.7734 14.6636 70.4714 14.627 70.4622 14.5721C70.4347 14.3616 70.4622 14.1327 70.5354 13.9314C70.5537 13.8673 70.7826 13.8856 70.9199 13.8581C71.0663 13.8307 71.3226 13.8215 71.3409 13.7483C71.3867 13.6018 71.3043 13.4096 71.2769 13.2266C71.643 13.0526 72.064 12.8787 72.4576 12.6499C72.5766 12.5858 72.6132 12.3845 72.7231 12.1922C72.7505 12.3387 72.778 12.4394 72.8146 12.6041C73.0068 12.595 73.254 12.6041 73.492 12.5675C73.8764 12.5126 73.9954 12.1282 73.8032 11.8078C73.7208 11.6797 73.8032 11.4508 73.8215 11.222C73.6476 11.3044 73.4553 11.4051 73.4096 11.6797C73.3913 11.8078 73.3638 11.9451 73.318 12.0732C73.2723 12.1739 73.1899 12.2563 73.1258 12.3478C73.0434 12.2563 72.9611 12.1648 72.8787 12.0641C72.8604 12.0366 72.8512 12 72.8329 11.9359C72.7231 11.9451 72.6224 11.9634 72.5217 11.9726C72.3936 11.762 72.4302 11.6339 72.6315 11.4966C72.8787 11.3227 73.0709 11.0755 73.3089 10.8833C73.437 10.7826 73.6293 10.6453 73.7666 10.6819C74.1602 10.7643 74.5446 10.9199 74.9382 11.0481L74.9016 11.2037C74.7551 11.1854 74.6178 11.1671 74.4073 11.1488C74.5263 11.2861 74.6087 11.3867 74.7185 11.5057C74.5904 11.6156 74.4531 11.7254 74.3066 11.8536C74.8466 12.0641 75.7071 11.5698 75.8535 10.9657C75.9634 10.984 76.0823 10.9932 76.1647 11.0023C76.0915 10.8009 76.0091 10.5996 75.9176 10.3616C78.6636 11.1396 80.6315 14.8925 80.1739 18.3524C80.0823 17.9588 79.9908 17.5927 79.8901 17.1625C79.3958 17.611 79.3043 18.2151 79.1029 18.7643C79.0663 18.7643 79.0389 18.7643 79.0023 18.7643C78.9656 18.4165 78.8741 18.0595 78.9107 17.7208C78.9565 17.2632 78.6636 16.9886 78.3798 16.8147C77.8764 16.5218 77.2997 16.3478 76.6499 16.0824C76.8238 16.3478 76.9702 16.5767 77.1258 16.8238C77.254 16.778 77.373 16.7414 77.4828 16.7048C77.913 17.1167 77.8672 17.4371 77.3455 17.7117C77.0984 17.8398 76.8512 17.9588 76.6041 18.0778C76.238 18.2609 76.1556 18.1968 76.0091 17.8215C75.7986 17.2815 75.5331 16.7689 75.286 16.2472C75.2585 16.1831 75.167 16.1465 75.0663 16.1282C75.3318 16.9245 75.4325 17.7758 76.0823 18.3707C76.2288 18.4989 76.5034 18.4806 76.7963 18.5538C76.6499 18.7643 76.5309 18.984 76.3569 19.1671C76.2013 19.3318 76 19.4508 75.8169 19.579C75.4233 19.8536 75.1762 20.1922 75.1945 20.7048C75.2128 21.0984 75.0114 21.3913 74.6636 21.6018C74.5171 21.6934 74.389 21.8673 74.3158 22.0412C74.1418 22.4897 73.3821 23.0206 72.9153 22.9932C72.7139 22.984 72.5949 22.9199 72.5675 22.6911C72.5309 22.4348 72.4393 22.1785 72.3661 21.9314C72.2471 21.5561 72.1739 21.2174 72.3203 20.8055C72.4119 20.5492 72.2563 20.1648 72.119 19.881C72.0183 19.6705 71.9267 19.524 72.0457 19.2952C72.1556 19.0755 72.0823 18.9382 71.8169 18.9108C71.7254 18.9016 71.643 18.8192 71.5515 18.8009C71.3592 18.7552 71.1579 18.7186 70.9656 18.7094C70.8192 18.7002 70.6727 18.7277 70.5354 18.746C69.8215 18.865 69.6293 18.2334 69.2814 17.849C69.1899 17.7483 69.2174 17.5378 69.2082 17.3822C69.199 17.1533 69.1899 16.9245 69.2082 16.6957C69.2082 16.5858 69.2448 16.4577 69.3089 16.3845C69.5194 16.1556 69.7574 15.9543 69.9679 15.7254C70.151 15.524 70.2883 15.2769 70.4805 15.0847C70.572 14.9932 70.7368 14.9748 70.8833 14.9291C70.9656 14.9016 71.0572 14.9016 71.1396 14.8925C71.5606 14.8467 71.9908 14.8009 72.421 14.7552C72.4302 15.2311 72.897 15.698 73.3089 15.7071C73.3364 15.7071 73.373 15.7071 73.3821 15.7071C73.7483 15.3318 74.1052 15.643 74.4622 15.7071C74.5354 15.7254 74.6087 15.7346 74.6819 15.7437C75.2494 15.7895 75.3684 15.643 75.2585 15.0389C75.1396 15.0389 75.0114 15.0298 74.9016 15.0481C74.6178 15.103 74.4439 14.9932 74.3524 14.7277C74.27 14.508 74.1601 14.325 73.8672 14.5263C73.9222 14.5996 73.9679 14.6819 74.032 14.7643C73.8306 14.9932 73.7391 14.8559 73.6476 14.6545C73.5194 14.3982 73.3913 14.1419 73.2265 13.9131C73.1533 13.8124 72.9977 13.7666 72.8787 13.6934C72.8604 13.7208 72.8421 13.7575 72.8146 13.7849L72.778 13.7666Z" fill="#86B049"/>
<path d="M69.5652 3.90845C70.0961 5.26314 70.0961 6.63614 69.6934 8.08236C71.8352 7.54231 73.8398 7.86268 75.7895 8.71394C75.0847 8.62241 74.389 8.50341 73.6842 8.43934C70.27 8.14643 67.5515 9.37298 65.7757 12.3203C64.0732 15.1487 64.0641 18.0961 65.73 20.9702C67.5332 24.0732 71.405 25.6659 75.1304 24.6316C75.2037 24.6133 77.3821 23.5698 77.4737 23.6064C77.3638 23.6613 75.1396 24.7506 75.0206 24.7963C71.8444 26.1144 68.0366 25.3455 65.611 22.9016C62.3066 19.5606 62.1144 14.4439 65.1808 10.8741C66.1053 9.79403 67.2494 8.98854 68.5675 8.45765C68.8329 8.34781 68.9611 8.18305 69.0343 7.92675C69.4096 6.70021 69.5835 5.4462 69.5561 4.16474C69.5561 4.08236 69.5561 3.99083 69.5561 3.90845H69.5652Z" fill="#476930"/>
<path d="M70.984 7.54232C71.1396 6.9382 71.5881 6.57207 72.1282 6.30662C73.5012 5.62927 74.8284 5.77573 76.119 6.57207C76.6041 6.86497 77.0984 7.13957 77.611 7.37756C78.3616 7.71623 79.1396 7.7803 79.9176 7.41417C80 7.37756 80.1007 7.3684 80.2289 7.39586C79.4691 8.62241 78.3982 9.48282 77.071 10.0229C75.8261 10.5355 73.5561 10.0961 72.3753 9.11669C73.4554 9.50113 74.4623 9.72081 75.5058 9.71165C76.6133 9.71165 77.4462 9.16245 78.27 8.45765C77.7941 8.25628 77.3639 8.11898 76.9703 7.90845C76.3753 7.58808 75.8078 7.2128 75.222 6.86497C74.0961 6.19678 72.952 6.29747 71.8261 6.84667C71.5149 7.00227 71.2678 7.30433 70.9932 7.54232H70.984Z" fill="#476930"/>
<path d="M68.6224 7.19448C67.9908 6.93819 67.643 6.43475 67.405 5.83979C67.0755 5.00683 67.0297 4.14642 67.4416 3.34093C67.9359 2.37068 68.5034 1.43704 69.0709 0.430176C69.8032 1.04345 70.4164 1.68418 70.9016 2.43475C71.3867 3.18532 71.6155 3.99082 71.4508 4.87869C71.405 5.12583 71.2952 5.36381 71.1945 5.66587C71.1396 5.56519 71.1212 5.53773 71.1212 5.51942C71.3867 4.05489 70.6727 2.9931 69.7116 2.04116C69.6384 1.96793 69.5652 1.90386 69.492 1.83063C69.3455 1.68418 69.2357 1.70249 69.135 1.8764C68.778 2.47137 68.3753 3.03887 68.0732 3.6613C67.4965 4.84208 67.7071 5.95878 68.4851 6.99311C68.5309 7.05718 68.5858 7.12125 68.6315 7.18533L68.6224 7.19448Z" fill="#476930"/>
<path d="M65.2082 17.3821C65.6842 17.6201 65.9222 18.0777 66.1144 18.5171C66.2975 18.929 66.5629 19.167 66.9473 19.3043C67.5606 19.5331 67.6521 19.6979 67.524 20.3478C67.4965 20.4942 67.524 20.6498 67.5331 20.7963C67.5423 21.0617 67.6979 21.3272 67.4691 21.5835C67.4325 21.6292 67.4599 21.7574 67.4874 21.8306C67.6247 22.215 67.762 22.5995 67.8901 22.9381C66.6544 22.3432 64.8421 18.6635 65.2082 17.3729V17.3821Z" fill="#86B049"/>
<path d="M70.9474 22.0046C70.389 22.0778 69.9222 22.1876 69.4645 21.8215C69.9954 21.5103 70.4256 21.675 70.9474 22.0046Z" fill="#86B049"/>
<path d="M0.805481 23.7987V9.61108H12.3753V9.9406H3.86269V16.2564H8.92447V16.5859H3.86269V23.7987H0.805481Z" fill="#0F0F0F"/>
<path d="M16.4576 9.63843H19.7071L25.5194 23.7986H22.3066L19.9176 18.0046H13.7757L11.6613 23.7986H11.2769L16.4485 9.63843H16.4576ZM13.9222 17.6659H19.7986L16.6773 10.0869L13.9222 17.6659Z" fill="#0F0F0F"/>
<path d="M30.3158 9.63848V13.6385C30.4256 13.0252 31.1945 9.32727 34.865 9.32727C38.5354 9.32727 39.9908 9.95885 39.9908 12.595C39.9908 15.2312 38.27 15.7621 36.1098 15.9085C38.8009 16.1282 41.3638 16.9611 41.3638 19.8536C41.3638 22.746 37.5103 23.7987 34.1052 23.7987H27.2585V9.63848H30.3158ZM30.3158 15.7895H34.3615C35.6521 15.7712 36.8604 15.0206 36.8604 12.4119C36.8604 9.80324 35.9542 9.64764 34.6636 9.64764C31.2585 9.64764 30.3981 13.9772 30.3158 15.7804V15.7895ZM30.3158 16.1007V23.46H33.2265C36.5217 23.46 38.1785 23.2769 38.1785 19.8627C38.1785 16.4486 36.5217 16.1007 33.5286 16.1007H30.3158Z" fill="#0F0F0F"/>
<path d="M46.2517 9.63849V14.3524C46.7277 11.7071 47.698 9.33643 51.0572 9.33643C54.4165 9.33643 56.9794 10.4531 56.9794 13.9863C56.9794 17.5195 55.341 18.0687 53.1899 18.5996L56.897 23.7804H53.4096L49.8947 18.9016H46.2517V23.7987H43.1945V9.63849H46.2517ZM46.2517 18.5996H49.373C51.4417 18.5996 53.849 18.2701 53.849 13.9863C53.849 9.70256 53.7208 9.40965 50.508 9.65679C49.1716 9.75748 47.6613 10.6087 47.0847 12.6042C46.1602 15.7529 46.2426 18.5996 46.2426 18.5996H46.2517Z" fill="#0F0F0F"/>
<path d="M58.8101 9.63843H61.8673V23.7986H58.8101V9.63843Z" fill="#0F0F0F"/>
<path d="M94.627 19.9543C94.627 23.0664 92.4943 24.119 87.9268 24.119C83.3593 24.119 81.1167 22.8833 81.1167 19.341L84.4302 18.8742C84.4302 21.7575 84.5126 23.7895 87.9176 23.7895C91.3226 23.7895 93.1075 23.1396 93.1075 20.5584C93.1075 17.9772 90.9748 18.0138 87.3593 17.5103C82.8375 16.8788 81.4828 15.6431 81.4828 13.0618C81.4828 10.4806 84.2197 9.32727 87.2128 9.32727C90.2059 9.32727 93.8673 10.5447 93.8673 13.6751L90.8558 14.0595C90.8558 11.341 90.7277 9.64764 87.2128 9.64764C83.6979 9.64764 82.7734 10.2975 82.7734 12.2289C82.7734 14.1602 83.8078 14.3433 87.405 14.8101C93.6934 15.6248 94.6178 17.6568 94.6178 19.9543H94.627Z" fill="#0F0F0F"/>
<path d="M5.08925 35.6705C4.76889 35.8261 4.13731 36.0366 3.49658 36.0366C2.10527 36.0366 1.29978 35.1121 1.29978 33.5286V30.2151H0.0457764V29.6476H1.29978V28.0732L1.9039 27.9359V29.6476H4.97026V30.2151H1.9039V33.5011C1.9039 34.7277 2.4531 35.4599 3.58811 35.4599C4.72312 35.4599 4.5309 35.3318 4.97941 35.1487L5.08925 35.6613V35.6705Z" fill="#0F0F0F"/>
<path d="M12.1739 32.9703H6.5263C6.59037 34.5172 7.66131 35.4509 9.12584 35.4509C10.5904 35.4509 10.9565 35.0298 11.3776 34.206H12C11.4874 35.4234 10.3615 36.0275 9.10753 36.0275C7.26772 36.0275 5.91302 34.7278 5.91302 32.7964C5.91302 30.8651 7.24026 29.5195 9.08007 29.5195C10.9199 29.5195 12.2105 30.9383 12.1739 32.9703ZM6.5446 32.4028H11.5423C11.3959 31.0573 10.4622 30.0962 9.08007 30.0962C7.69792 30.0962 6.70021 31.0664 6.5446 32.4028Z" fill="#0F0F0F"/>
<path d="M17.5011 35.9085L15.5423 33.1625L13.5927 35.9085H12.8513L15.1579 32.6865L12.9794 29.6476H13.7117L15.5423 32.2197L17.3547 29.6476H18.0961L15.9085 32.6865L18.2151 35.9085H17.4828H17.5011Z" fill="#0F0F0F"/>
<path d="M23.9176 35.6705C23.5973 35.8261 22.9657 36.0366 22.3249 36.0366C20.9336 36.0366 20.1281 35.1121 20.1281 33.5286V30.2151H18.8741V29.6476H20.1281V28.0732L20.7323 27.9359V29.6476H23.7986V30.2151H20.7323V33.5011C20.7323 34.7277 21.2815 35.4599 22.4165 35.4599C23.5515 35.4599 23.3593 35.3318 23.8078 35.1487L23.9176 35.6613V35.6705Z" fill="#0F0F0F"/>
<path d="M26.0778 27.4234C26.0778 27.698 25.8764 27.8993 25.5927 27.8993C25.3089 27.8993 25.1167 27.698 25.1167 27.4234C25.1167 27.1488 25.3364 26.9565 25.5927 26.9565C25.849 26.9565 26.0778 27.1579 26.0778 27.4234ZM25.2906 29.6476H25.8947V35.9085H25.2906V29.6476Z" fill="#0F0F0F"/>
<path d="M27.8078 27.1396H28.4211V35.9085H27.8078V27.1396Z" fill="#0F0F0F"/>
<path d="M36.1922 32.9703H30.5446C30.6087 34.5172 31.6796 35.4509 33.1442 35.4509C34.6087 35.4509 34.9748 35.0298 35.3959 34.206H36.0183C35.5057 35.4234 34.3798 36.0275 33.1258 36.0275C31.286 36.0275 29.9313 34.7278 29.9313 32.7964C29.9313 30.8651 31.2586 29.5195 33.0984 29.5195C34.9382 29.5195 36.2288 30.9383 36.1922 32.9703ZM30.5629 32.4028H35.5606C35.4142 31.0573 34.4805 30.0962 33.0984 30.0962C31.7162 30.0962 30.7185 31.0664 30.5629 32.4028Z" fill="#0F0F0F"/>
<path d="M47.341 32.7781C47.341 34.6545 46.1236 36.0367 44.3844 36.0367C42.6453 36.0367 42.2426 35.3868 41.7574 34.4074V38.7552H41.1533V29.6477H41.7574V31.1488C42.2426 30.1694 43.2037 29.5195 44.3844 29.5195C46.1236 29.5195 47.341 30.8925 47.341 32.7781ZM46.7368 32.7781C46.7368 31.2312 45.7483 30.1053 44.2929 30.1053C42.8375 30.1053 41.7391 31.2312 41.7391 32.7781C41.7391 34.325 42.8467 35.4509 44.2929 35.4509C45.7391 35.4509 46.7368 34.325 46.7368 32.7781Z" fill="#0F0F0F"/>
<path d="M52.2929 29.5561V30.1603C52.1922 30.1511 52.0458 30.142 51.8902 30.142C50.4439 30.142 49.5103 31.2037 49.5103 32.8696V35.9085H48.9062V29.6477H49.5103V31.2037C49.8764 30.2243 50.6636 29.5195 51.881 29.5195C53.0984 29.5195 52.1922 29.5287 52.2929 29.5561Z" fill="#0F0F0F"/>
<path d="M59.5515 32.7781C59.5515 34.6454 58.1419 36.0367 56.3387 36.0367C54.5355 36.0367 53.1259 34.6454 53.1259 32.7781C53.1259 30.9108 54.5721 29.5195 56.3387 29.5195C58.1053 29.5195 59.5515 30.8925 59.5515 32.7781ZM53.7483 32.7781C53.7483 34.325 54.9016 35.4509 56.3478 35.4509C57.794 35.4509 58.9474 34.325 58.9474 32.7781C58.9474 31.2312 57.7849 30.1053 56.3478 30.1053C54.9107 30.1053 53.7483 31.2129 53.7483 32.7781Z" fill="#0F0F0F"/>
<path d="M67.0389 27.1396V35.9085H66.4348V34.4074C65.9313 35.3868 64.9886 36.0367 63.8078 36.0367C62.0503 36.0367 60.8329 34.6637 60.8329 32.7781C60.8329 30.8925 62.0595 29.5195 63.7895 29.5195C65.5194 29.5195 65.9313 30.1694 66.4348 31.1488V27.1396H67.0389ZM66.4348 32.7781C66.4348 31.2312 65.3272 30.1053 63.881 30.1053C62.4348 30.1053 61.4371 31.2312 61.4371 32.7781C61.4371 34.325 62.4348 35.4509 63.881 35.4509C65.3272 35.4509 66.4348 34.3342 66.4348 32.7781Z" fill="#0F0F0F"/>
<path d="M74.0412 29.6476V35.9085H73.4371V34.4439C73.0343 35.3776 72.2746 36.0366 71.0572 36.0366C69.8398 36.0366 68.8421 35.1579 68.8421 33.6384V29.6567H69.4462V33.5652C69.4462 34.8284 70.087 35.4691 71.1854 35.4691C72.2838 35.4691 73.4371 34.3982 73.4371 32.8238V29.6567H74.0412V29.6476Z" fill="#0F0F0F"/>
<path d="M75.5698 32.7781C75.5698 30.9017 76.9794 29.5195 78.7918 29.5195C80.6042 29.5195 81.4005 30.3708 81.7849 31.7255H81.1442C80.8147 30.7461 79.8993 30.087 78.7918 30.087C77.6842 30.087 76.1739 31.222 76.1739 32.769C76.1739 34.3159 77.309 35.4509 78.7826 35.4509C80.2563 35.4509 80.8238 34.7827 81.1533 33.8124H81.7941C81.4096 35.1671 80.2014 36.0184 78.7918 36.0184C77.3822 36.0184 75.579 34.6454 75.579 32.7598L75.5698 32.7781Z" fill="#0F0F0F"/>
<path d="M87.6705 35.6705C87.3501 35.8261 86.7185 36.0366 86.0778 36.0366C84.6865 36.0366 83.881 35.1121 83.881 33.5286V30.2151H82.627V29.6476H83.881V28.0732L84.4851 27.9359V29.6476H87.5515V30.2151H84.4851V33.5011C84.4851 34.7277 85.0343 35.4599 86.1693 35.4599C87.3044 35.4599 87.1121 35.3318 87.5606 35.1487L87.6705 35.6613V35.6705Z" fill="#0F0F0F"/>
<path d="M88.4943 33.9497H89.1075C89.3913 35.0115 90.2151 35.4509 91.4599 35.4509C92.7048 35.4509 93.3455 35.039 93.3455 34.2335C93.3455 33.428 92.5858 33.3456 91.2952 33.0161C89.5011 32.5584 88.8238 32.2655 88.8238 31.3319C88.8238 30.3982 89.8673 29.5195 91.2494 29.5195C92.6316 29.5195 93.5835 30.142 93.8581 31.2495H93.2448C92.9611 30.4623 92.2105 30.0962 91.2677 30.0962C90.3249 30.0962 89.4371 30.5539 89.4371 31.277C89.4371 32.0001 90.032 32.0733 91.4966 32.4486C93.0892 32.8605 93.9679 33.0985 93.9679 34.1786C93.9679 35.2587 92.8146 36.0184 91.4782 36.0184C90.1419 36.0184 88.7597 35.2678 88.4943 33.9314V33.9497Z" fill="#0F0F0F"/>
</g>
<defs>
<clipPath id="clip0_2002_874">
<rect width="94.6453" height="40" fill="white"/>
</clipPath>
</defs>
</svg>
