<svg width="10" height="10" viewBox="0 0 10 10" fill="none" xmlns="http://www.w3.org/2000/svg">
<path d="M3.50958 10.1079C3.34369 10.1086 3.18434 10.0433 3.06657 9.92647C2.9488 9.80965 2.88227 9.65082 2.88161 9.48493C2.88094 9.31905 2.9462 9.1597 3.06303 9.04193C3.17986 8.92416 3.33869 8.85763 3.50457 8.85697H3.50958C3.67546 8.85697 3.83455 8.92286 3.95185 9.04016C4.06914 9.15746 4.13504 9.31655 4.13504 9.48243C4.13504 9.64832 4.06914 9.80741 3.95185 9.92471C3.83455 10.042 3.67546 10.1079 3.50958 10.1079ZM8.13803 9.48243C8.13803 9.31655 8.07213 9.15746 7.95484 9.04016C7.83754 8.92286 7.67845 8.85697 7.51256 8.85697H7.50756C7.38407 8.85795 7.26364 8.89548 7.16144 8.9648C7.05925 9.03413 6.97986 9.13215 6.93328 9.24652C6.88671 9.3609 6.87504 9.4865 6.89973 9.60749C6.92443 9.72849 6.98439 9.83947 7.07206 9.92644C7.15973 10.0134 7.27118 10.0725 7.39237 10.0962C7.51356 10.12 7.63906 10.1073 7.75306 10.0598C7.86706 10.0123 7.96445 9.93215 8.03296 9.8294C8.10147 9.72665 8.13803 9.60592 8.13803 9.48243ZM9.48353 3.15771L8.97816 6.25002C8.97169 6.43125 8.9271 6.60909 8.8473 6.77193C8.76749 6.93477 8.65426 7.07896 8.51498 7.1951C8.3757 7.31125 8.21351 7.39673 8.03898 7.44598C7.86445 7.49523 7.6815 7.50714 7.50206 7.48094H3.36397C3.12268 7.48153 2.88934 7.39467 2.70719 7.23643C2.52503 7.07819 2.40638 6.8593 2.37323 6.6203L1.62217 1.3924C1.60254 1.24211 1.52871 1.10417 1.41455 1.00447C1.30039 0.904781 1.15376 0.850203 1.0022 0.850991H0.872106C0.772576 0.850991 0.677122 0.811453 0.606743 0.741074C0.536364 0.670696 0.496826 0.575242 0.496826 0.475711C0.496826 0.376181 0.536364 0.280727 0.606743 0.210348C0.677122 0.139969 0.772576 0.100431 0.872106 0.100431H1.0022C1.33423 0.0983003 1.65566 0.21722 1.90635 0.434939C2.15704 0.652659 2.31982 0.954261 2.36422 1.28331L2.4688 1.97683H8.5028C8.64917 1.97737 8.79364 2.01 8.92602 2.07244C9.05841 2.13488 9.17548 2.22559 9.269 2.33819C9.36251 2.45079 9.43019 2.58254 9.46726 2.72413C9.50433 2.86573 9.50988 3.01374 9.48353 3.15771ZM6.755 3.79619C6.72015 3.76132 6.67877 3.73365 6.63322 3.71478C6.58767 3.6959 6.53885 3.68619 6.48955 3.68619C6.44025 3.68619 6.39143 3.6959 6.34588 3.71478C6.30033 3.73365 6.25895 3.76132 6.2241 3.79619L5.1553 4.86499L4.75501 4.46469C4.68426 4.39629 4.58948 4.35842 4.49108 4.35923C4.39268 4.36004 4.29854 4.39946 4.22893 4.46901C4.15931 4.53856 4.1198 4.63266 4.1189 4.73106C4.118 4.82946 4.15578 4.92427 4.22411 4.99508L4.89111 5.66258C4.96162 5.73277 5.05706 5.77217 5.15655 5.77217C5.25605 5.77217 5.35149 5.73277 5.422 5.66258L6.755 4.32859C6.7901 4.29371 6.81795 4.25223 6.83696 4.20655C6.85597 4.16086 6.86575 4.11187 6.86575 4.06239C6.86575 4.01291 6.85597 3.96391 6.83696 3.91823C6.81795 3.87254 6.7901 3.83107 6.755 3.79619Z" fill="#FCFCFC"/>
</svg>
