<svg width="10" height="6" viewBox="0 0 10 6" fill="none" xmlns="http://www.w3.org/2000/svg">
<path fill-rule="evenodd" clip-rule="evenodd" d="M2.99502 2.99988C2.99502 1.89484 3.89385 0.995643 5.00008 0.995643C6.10514 0.995643 7.00395 1.89482 7.00395 2.99988C7.00395 4.10517 6.10514 5.00398 5.00008 5.00398C3.89383 5.00398 2.99502 4.10517 2.99502 2.99988ZM0.557227 2.80867C0.488086 2.93373 0.488086 3.06603 0.557227 3.19121C1.45486 4.80312 3.15713 5.80447 5.00008 5.80447C6.84182 5.80447 8.5441 4.80314 9.44174 3.19121C9.51207 3.06603 9.51207 2.93373 9.44174 2.80867C8.5441 1.19676 6.84184 0.195526 5.00008 0.195526C3.15713 0.195526 1.45486 1.19676 0.557227 2.80867ZM5.00008 1.65248C4.25623 1.65248 3.65184 2.25685 3.65184 2.99988C3.65184 3.74289 4.25621 4.34728 5.00008 4.34728C5.74273 4.34728 6.34711 3.74291 6.34711 2.99988C6.34711 2.25685 5.74273 1.65248 5.00008 1.65248Z" fill="#FCFCFC"/>
</svg>
